HIERARCHY
ROOT reference
{
  OFFSET 0 0 0
  CHANNELS 6 Xposition Yposition Zposition Zrotation Xrotation Yrotation
  JOINT Hips
  {
    OFFSET 62.0736 86.4525 155.86
    CHANNELS 6 Xposition Yposition Zposition Zrotation Xrotation Yrotation
    JOINT Spine
    {
      OFFSET 0 7.3847 0
      CHANNELS 6 Xposition Yposition Zposition Zrotation Xrotation Yrotation
      JOINT Spine1
      {
        OFFSET 0 22.52 0
        CHANNELS 6 Xposition Yposition Zposition Zrotation Xrotation Yrotation
        JOINT Neck
        {
          OFFSET 0 22.4276 2.03887
          CHANNELS 6 Xposition Yposition Zposition Zrotation Xrotation Yrotation
          JOINT Head
          {
            OFFSET 0 12.608 -1.80115
            CHANNELS 6 Xposition Yposition Zposition Zrotation Xrotation Yrotation
            End Site
            {
              OFFSET 0 22.5143 0
            }
          }
        }
        JOINT LeftShoulder
        {
          OFFSET 3.70204 19.5563 -0.329131
          CHANNELS 6 Xposition Yposition Zposition Zrotation Xrotation Yrotation
          JOINT LeftArm
          {
            OFFSET 13.7086 0 0
            CHANNELS 6 Xposition Yposition Zposition Zrotation Xrotation Yrotation
            JOINT LeftForeArm
            {
              OFFSET 25.9307 0 0
              CHANNELS 6 Xposition Yposition Zposition Zrotation Xrotation Yrotation
              JOINT LeftHand
              {
                OFFSET 23.5097 0 0
                CHANNELS 6 Xposition Yposition Zposition Zrotation Xrotation Yrotation
                End Site
                {
                  OFFSET 13.5086 0 0
                }
              }
            }
          }
        }
        JOINT RightShoulder
        {
          OFFSET -3.48695 19.5563 -0.329131
          CHANNELS 6 Xposition Yposition Zposition Zrotation Xrotation Yrotation
          JOINT RightArm
          {
            OFFSET -13.7086 0 0
            CHANNELS 6 Xposition Yposition Zposition Zrotation Xrotation Yrotation
            JOINT RightForeArm
            {
              OFFSET -25.9307 0 0
              CHANNELS 6 Xposition Yposition Zposition Zrotation Xrotation Yrotation
              JOINT RightHand
              {
                OFFSET -23.5097 0 0
                CHANNELS 6 Xposition Yposition Zposition Zrotation Xrotation Yrotation
                End Site
                {
                  OFFSET -13.5086 0 0
                }
              }
            }
          }
        }
      }
    }
    JOINT LeftUpLeg
    {
      OFFSET 9.00574 0 0
      CHANNELS 6 Xposition Yposition Zposition Zrotation Xrotation Yrotation
      JOINT LeftLeg
      {
        OFFSET 0 -37.3387 0
        CHANNELS 6 Xposition Yposition Zposition Zrotation Xrotation Yrotation
        JOINT LeftFoot
        {
          OFFSET 0 -36.155 0
          CHANNELS 6 Xposition Yposition Zposition Zrotation Xrotation Yrotation
          JOINT LeftToeBase
          {
            OFFSET 0 -5.85373 13.5086
            CHANNELS 6 Xposition Yposition Zposition Zrotation Xrotation Yrotation
            End Site
            {
              OFFSET 0 0 3.60229
            }
          }
        }
      }
    }
    JOINT RightUpLeg
    {
      OFFSET -9.00574 0 0
      CHANNELS 6 Xposition Yposition Zposition Zrotation Xrotation Yrotation
      JOINT RightLeg
      {
        OFFSET 0 -37.3387 0
        CHANNELS 6 Xposition Yposition Zposition Zrotation Xrotation Yrotation
        JOINT RightFoot
        {
          OFFSET 0 -36.155 0
          CHANNELS 6 Xposition Yposition Zposition Zrotation Xrotation Yrotation
          JOINT RightToeBase
          {
            OFFSET 0 -5.85373 13.5086
            CHANNELS 6 Xposition Yposition Zposition Zrotation Xrotation Yrotation
            End Site
            {
              OFFSET 0 0 3.60229
            }
          }
        }
      }
    }
  }
}
MOTION
Frames:	10
Frame Time:	0.004
0 0 0 0 0 -0 41.3609 77.9972 -60.2121 -6.05411 -3.12451 98.2243 0 7.3847 0 -2.85052 -2.38078 -2.1467 0 22.52 0 -6.68579 -1.76027 -2.19038 1.42109e-014 22.4276 2.03887 4.33887 22.6902 -32.216 0 12.608 -1.80115 28.0154 -7.19559 -28.0024 3.70204 19.5563 -0.329131 13.2468 6.76389 -1.35969 13.7086 0 3.55271e-015 -33.4787 -0.824523 5.41441 25.9307 0 -3.55271e-015 13.1964 7.98167 -16.1965 23.5097 0 3.55271e-015 -10.0179 9.17457 7.75382 -3.48695 19.5563 -0.329131 -13.2227 1.29818 -4.5239 -13.7086 -2.84217e-014 0 17.41 9.8013 12.7448 -25.9307 0 0 9.15763 17.9973 5.89722 -23.5097 -2.84217e-014 1.42109e-014 -5.26883 17.6492 -2.32842 9.00574 1.42109e-014 -7.10543e-015 19.9248 -13.5745 7.1356 0 -37.3387 7.10543e-015 -4.5014 15.6165 35.7751 3.55271e-015 -36.155 1.42109e-014 -8.8965 10.9665 0.788921 7.10543e-015 -5.85373 13.5086 -1.19271e-015 1.98785e-015 3.18055e-015 -9.00574 0 0 -8.13993 -17.6357 -8.54426 0 -37.3387 0 14.4219 31.4277 -15.7093 -7.10543e-015 -36.155 0 -1.64506 -13.8136 -20.3758 0 -5.85373 13.5086 7.70291e-016 2.00027e-015 -6.36111e-015 
0 0 0 0 0 -0 41.3726 78.1119 -60.0679 -6.11725 -3.07979 98.2094 7.10543e-015 7.3847 0 -2.85454 -2.45703 -2.13619 0 22.52 0 -6.7212 -1.73783 -2.17713 -7.10543e-015 22.4276 2.03887 4.37898 22.6503 -32.1838 1.42109e-014 12.608 -1.80115 27.9334 -7.20356 -27.9809 3.70204 19.5563 -0.329131 13.1793 6.79244 -1.27461 13.7086 2.84217e-014 -3.55271e-015 -33.6196 -0.851669 5.40624 25.9307 0 0 13.3126 8.00197 -16.2735 23.5097 0 3.55271e-015 -10.0398 9.22849 7.64385 -3.48695 19.5563 -0.329131 -13.1985 1.28565 -4.55528 -13.7086 0 0 17.3687 9.78391 12.7887 -25.9307 -2.84217e-014 0 9.16451 17.981 5.87642 -23.5097 -2.84217e-014 0 -5.27698 17.6346 -2.3365 9.00574 0 -7.10543e-015 19.6628 -13.6428 7.3331 1.42109e-014 -37.3387 7.10543e-015 -4.51526 15.7521 35.5974 0 -36.155 0 -8.93533 10.9145 0.819634 -1.42109e-014 -5.85373 13.5086 -2.78299e-015 -1.19271e-015 3.18055e-015 -9.00574 0 0 -7.99797 -17.4841 -8.60465 0 -37.3387 -7.10543e-015 14.2096 31.0203 -15.4038 0 -36.155 -3.55271e-015 -1.55005 -13.5913 -20.4295 0 -5.85373 13.5086 4.41053e-016 3.63403e-016 3.18055e-015 
0 0 0 0 0 -0 41.3894 78.2344 -59.9211 -6.15633 -3.03453 98.1988 0 7.3847 1.42109e-014 -2.86747 -2.51047 -2.11483 7.10543e-015 22.52 0 -6.74916 -1.70617 -2.15268 1.42109e-014 22.4276 2.03887 4.39434 22.5491 -32.1701 1.42109e-014 12.608 -1.80115 27.8471 -7.12757 -28.0048 3.70204 19.5563 -0.329131 13.126 6.83102 -1.18934 13.7086 0 3.55271e-015 -33.8052 -0.779383 5.35033 25.9307 0 3.55271e-015 13.4908 7.84169 -16.4388 23.5097 0 -3.55271e-015 -10.173 9.09333 7.77746 -3.48695 19.5563 -0.329131 -13.1663 1.2896 -4.61393 -13.7086 2.84217e-014 0 17.3337 9.72654 12.8269 -25.9307 0 -1.06581e-014 9.17809 17.9662 5.86818 -23.5097 -2.84217e-014 -1.06581e-014 -5.31117 17.6211 -2.35412 9.00574 0 7.10543e-015 19.4066 -13.6868 7.48078 0 -37.3387 0 -4.54432 15.8972 35.5473 3.55271e-015 -36.155 1.42109e-014 -8.80647 10.8109 0.703827 3.55271e-015 -5.85373 13.5086 3.97569e-016 -1.19271e-015 -3.18055e-015 -9.00574 0 1.42109e-014 -7.83621 -17.2619 -8.50198 -7.10543e-015 -37.3387 0 14.0608 30.4892 -15.2965 0 -36.155 7.10543e-015 -1.58914 -13.3423 -20.4462 0 -5.85373 13.5086 -3.72721e-016 5.96354e-016 -3.18055e-015 
0 0 0 0 0 -0 41.401 78.3489 -59.7752 -6.21132 -3.00957 98.1837 0 7.3847 0 -2.85811 -2.56262 -2.09923 7.10543e-015 22.52 0 -6.76404 -1.75767 -2.13925 0 22.4276 2.03887 4.65446 23.0621 -32.1088 -1.42109e-014 12.608 -1.80115 27.9016 -7.93931 -27.6908 3.70204 19.5563 -0.329131 12.9919 6.95078 -1.16482 13.7086 2.84217e-014 -3.55271e-015 -33.8657 -0.885008 5.35641 25.9307 0 0 13.5469 7.79429 -16.5851 23.5097 2.84217e-014 0 -10.1189 9.07505 7.78157 -3.48695 19.5563 -0.329131 -13.1457 1.32701 -4.58774 -13.7086 0 0 17.3201 9.74944 12.8165 -25.9307 0 0 9.13723 17.9278 5.83637 -23.5097 -2.84217e-014 3.55271e-015 -5.52135 17.5827 -2.16831 9.00574 2.84217e-014 7.10543e-015 19.1659 -13.7666 7.68856 -1.42109e-014 -37.3387 0 -4.54769 16.0689 35.2854 0 -36.155 -1.42109e-014 -8.78134 10.7388 0.762624 0 -5.85373 13.5086 7.95139e-016 -2.38542e-015 -6.36111e-015 -9.00574 1.42109e-014 0 -7.6608 -17.0696 -8.40793 0 -37.3387 7.10543e-015 13.9066 29.9767 -15.1975 -7.10543e-015 -36.155 7.10543e-015 -1.60357 -13.0997 -20.4464 0 -5.85373 13.5086 -2.98177e-016 8.82107e-016 3.18055e-015 
0 0 0 0 0 -0 41.4165 78.4685 -59.6352 -6.26134 -2.9687 98.1642 -7.10543e-015 7.3847 0 -2.86496 -2.61854 -2.08635 0 22.52 -7.10543e-015 -6.78401 -1.7531 -2.12488 -1.42109e-014 22.4276 2.03887 4.39296 22.6193 -32.1285 -1.42109e-014 12.608 -1.80115 27.8216 -7.14759 -27.9571 3.70204 19.5563 -0.329131 12.888 6.98253 -1.0687 13.7086 0 7.10543e-015 -33.9982 -0.828571 5.36114 25.9307 0 7.10543e-015 13.7408 7.73271 -16.7279 23.5097 0 -3.55271e-015 -10.2817 9.05335 7.72539 -3.48695 19.5563 -0.329131 -13.1105 1.30156 -4.62375 -13.7086 0 0 17.2775 9.80849 12.866 -25.9307 -5.68434e-014 7.10543e-015 9.1012 17.8825 5.82127 -23.5097 -2.84217e-014 7.10543e-015 -5.47784 17.5425 -2.23421 9.00574 0 0 18.8871 -13.8303 7.85995 0 -37.3387 0 -4.54109 16.2249 35.2388 1.06581e-014 -36.155 0 -8.67524 10.7159 0.709187 -1.06581e-014 -5.85373 13.5086 1.98785e-015 -7.95139e-016 -3.18055e-015 -9.00574 1.42109e-014 0 -7.51105 -16.8366 -8.14162 0 -37.3387 -7.10543e-015 13.8735 29.3677 -15.2157 -7.10543e-015 -36.155 0 -1.45254 -12.8718 -20.521 0 -5.85373 13.5086 -4.47266e-016 8.94531e-016 -6.36111e-015 
0 0 0 0 0 -0 41.432 78.5937 -59.4983 -6.31092 -2.91378 98.1521 -7.10543e-015 7.3847 -7.10543e-015 -2.87946 -2.66069 -2.07215 -7.10543e-015 22.52 -7.10543e-015 -6.81536 -1.81086 -2.1132 0 22.4276 2.03887 4.37125 22.7032 -32.1044 0 12.608 -1.80115 27.8606 -7.13966 -27.9232 3.70204 19.5563 -0.329131 12.8071 7.05777 -1.02796 13.7086 0 0 -34.1695 -0.785764 5.37338 25.9307 0 7.10543e-015 13.9352 7.70516 -16.7954 23.5097 0 3.55271e-015 -10.235 9.0756 7.61756 -3.48695 19.5563 -0.329131 -13.0849 1.32544 -4.59971 -13.7086 0 0 17.2503 9.76156 12.8494 -25.9307 0 -3.55271e-015 9.15243 17.8675 5.81825 -23.5097 -2.84217e-014 3.55271e-015 -5.51627 17.5281 -2.28343 9.00574 1.42109e-014 -7.10543e-015 18.5954 -13.8689 8.00557 0 -37.3387 -1.42109e-014 -4.55345 16.3352 35.1538 -3.55271e-015 -36.155 0 -8.62285 10.6864 0.712933 0 -5.85373 13.5086 -1.19271e-015 0 3.18055e-015 -9.00574 1.42109e-014 0 -7.36561 -16.6212 -8.0408 7.10543e-015 -37.3387 0 13.7104 28.8298 -15.1424 0 -36.155 1.06581e-014 -1.42109 -12.612 -20.5118 0 -5.85373 13.5086 5.96354e-016 -3.47873e-016 -6.36111e-015 
0 0 0 0 0 -0 41.4457 78.715 -59.3579 -6.38474 -2.89023 98.1396 0 7.3847 0 -2.89374 -2.73601 -2.04903 0 22.52 0 -6.80606 -1.84038 -2.08942 0 22.4276 2.03887 4.68705 23.1559 -32.0201 -1.42109e-014 12.608 -1.80115 27.8247 -7.97406 -27.5957 3.70204 19.5563 -0.329131 12.7328 7.13712 -0.99626 13.7086 0 3.55271e-015 -34.3559 -0.781973 5.36905 25.9307 0 7.10543e-015 14.1023 7.58622 -16.9691 23.5097 0 1.06581e-014 -10.2757 8.9948 7.68525 -3.48695 19.5563 -0.329131 -13.0586 1.40907 -4.65147 -13.7086 0 -7.10543e-015 17.2225 9.78093 12.9079 -25.9307 0 3.55271e-015 9.10193 17.7963 5.80741 -23.5097 0 -1.42109e-014 -5.65821 17.4599 -2.2223 9.00574 1.42109e-014 -7.10543e-015 18.3338 -13.9715 8.16561 0 -37.3387 0 -4.55889 16.5179 34.9556 0 -36.155 -1.42109e-014 -8.65805 10.6648 0.837361 0 -5.85373 13.5086 -1.19271e-015 -1.59028e-015 -6.36111e-015 -9.00574 0 0 -7.18484 -16.426 -8.02002 0 -37.3387 7.10543e-015 13.4933 28.2967 -14.9389 7.10543e-015 -36.155 -7.10543e-015 -1.41403 -12.3496 -20.5347 7.10543e-015 -5.85373 13.5086 1.98785e-016 -7.95139e-016 6.36111e-015 
0 0 0 0 0 -0 41.4608 78.8329 -59.2095 -6.45251 -2.87022 98.1005 0 7.3847 -7.10543e-015 -2.92635 -2.8199 -2.01989 0 22.52 0 -6.76484 -1.82004 -2.05552 7.10543e-015 22.4276 2.03887 4.77093 23.1684 -32.0127 0 12.608 -1.80115 27.7308 -8.09438 -27.5712 3.70204 19.5563 -0.329131 12.6307 7.125 -0.914335 13.7086 0 3.55271e-015 -34.5009 -0.71902 5.382 25.9307 0 -7.10543e-015 14.2816 7.49553 -17.1335 23.5097 2.84217e-014 0 -10.3437 8.94695 7.6916 -3.48695 19.5563 -0.329131 -13.085 1.34604 -4.70325 -13.7086 0 7.10543e-015 17.2364 9.77439 12.9197 -25.9307 2.84217e-014 0 9.11902 17.8147 5.80535 -23.5097 -2.84217e-014 1.42109e-014 -5.72772 17.4773 -2.1876 9.00574 1.42109e-014 0 18.0772 -14.0499 8.36568 0 -37.3387 0 -4.55267 16.6914 34.9379 0 -36.155 1.42109e-014 -8.44969 10.5313 0.6882 -1.06581e-014 -5.85373 13.5086 7.95139e-016 -3.18055e-015 -6.36111e-015 -9.00574 1.42109e-014 0 -6.98697 -16.2396 -7.95493 7.10543e-015 -37.3387 -7.10543e-015 13.2871 27.7627 -14.818 0 -36.155 -3.55271e-015 -1.52753 -11.9805 -20.3372 0 -5.85373 13.5086 -1.98785e-016 -5.46658e-016 -3.18055e-015 
0 0 0 0 0 -0 41.4773 78.9563 -59.0922 -6.50157 -2.79858 98.0935 0 7.3847 0 -2.94995 -2.85411 -2.00505 0 22.52 0 -6.79467 -1.90028 -2.04443 0 22.4276 2.03887 4.77893 23.2805 -31.989 0 12.608 -1.80115 27.7471 -8.11556 -27.5313 3.70204 19.5563 -0.329131 12.5208 7.27898 -0.872083 13.7086 0 -3.55271e-015 -34.6189 -0.769095 5.36607 25.9307 -2.84217e-014 7.10543e-015 14.4614 7.43572 -17.2839 23.5097 0 3.55271e-015 -10.49 8.92538 7.67705 -3.48695 19.5563 -0.329131 -13.0458 1.38796 -4.68952 -13.7086 -2.84217e-014 0 17.2031 9.80079 12.9267 -25.9307 0 -3.55271e-015 9.09835 17.7762 5.77177 -23.5097 0 -1.06581e-014 -5.81915 17.4401 -2.10866 9.00574 1.42109e-014 -1.42109e-014 17.7253 -14.077 8.43453 0 -37.3387 0 -4.55223 16.7696 34.8775 -7.10543e-015 -36.155 0 -8.51716 10.5371 0.771746 0 -5.85373 13.5086 -0 -1.59028e-015 -0 -9.00574 0 -7.10543e-015 -6.90056 -15.9981 -7.93704 -7.10543e-015 -37.3387 0 13.1795 27.1898 -14.7094 0 -36.155 0 -1.57934 -11.6832 -20.383 -7.10543e-015 -5.85373 13.5086 4.96962e-016 -1.78906e-015 -0 
0 0 0 0 0 -0 41.4927 79.0783 -58.9569 -6.57264 -2.75917 98.0672 -7.10543e-015 7.3847 0 -2.98357 -2.92897 -1.97669 0 22.52 -7.10543e-015 -6.78898 -1.92868 -2.01491 1.42109e-014 22.4276 2.03887 4.64581 23.0643 -31.9973 0 12.608 -1.80115 27.675 -7.65866 -27.6843 3.70204 19.5563 -0.329131 12.4556 7.29963 -0.829026 13.7086 0 0 -34.7802 -0.753902 5.40054 25.9307 0 0 14.5905 7.26421 -17.5256 23.5097 0 3.55271e-015 -10.4921 8.79198 7.82383 -3.48695 19.5563 -0.329131 -13.0001 1.41166 -4.74214 -13.7086 0 7.10543e-015 17.1613 9.88655 12.9718 -25.9307 -2.84217e-014 0 9.0298 17.7004 5.78488 -23.5097 -2.84217e-014 -7.10543e-015 -5.79656 17.3689 -2.16546 9.00574 0 -7.10543e-015 17.4378 -14.1546 8.55981 1.42109e-014 -37.3387 0 -4.56516 16.9292 34.7917 -7.10543e-015 -36.155 0 -8.48434 10.477 0.775956 -3.55271e-015 -5.85373 13.5086 -8.82781e-032 -1.59028e-015 -3.18055e-015 -9.00574 1.42109e-014 7.10543e-015 -6.73556 -15.7781 -7.86518 0 -37.3387 -7.10543e-015 12.9859 26.5962 -14.5642 -7.10543e-015 -36.155 -3.55271e-015 -1.59773 -11.3669 -20.4057 0 -5.85373 13.5086 -4.96962e-016 -3.47873e-016 -0 
